HIERARCHY
ROOT Hips
{
  OFFSET 377.359 91.7583 291.037
  CHANNELS 6 Xposition Yposition Zposition Zrotation Xrotation Yrotation
  JOINT RightUpLeg
  {
    OFFSET -9.28642 -1.59632 -9.03395e-05
    CHANNELS 3 Zrotation Xrotation Yrotation
    JOINT RightLeg
    {
      OFFSET -0.0601623 -41.888 0.0982453
      CHANNELS 3 Zrotation Xrotation Yrotation
      JOINT RightFoot
      {
        OFFSET -0.549468 -42.1724 0.947078
        CHANNELS 3 Zrotation Xrotation Yrotation
        End Site
        {
          OFFSET 0 -7.69 17.5
        }
      }
    }
  }
  JOINT LeftUpLeg
  {
    OFFSET 9.28298 -1.59548 -0.0248362
    CHANNELS 3 Zrotation Xrotation Yrotation
    JOINT LeftLeg
    {
      OFFSET 0.0192929 -41.8873 0.00794164
      CHANNELS 3 Zrotation Xrotation Yrotation
      JOINT LeftFoot
      {
        OFFSET -0.746045 -41.1665 -0.569803
        CHANNELS 3 Zrotation Xrotation Yrotation
        End Site
        {
          OFFSET 0 -7.69 17.5
        }
      }
    }
  }
  JOINT Spine
  {
    OFFSET -0.000345586 14.3043 -0.042359
    CHANNELS 3 Zrotation Xrotation Yrotation
    JOINT Spine1
    {
      OFFSET 0.0196078 9.72339 0.000861227
      CHANNELS 3 Zrotation Xrotation Yrotation
      JOINT Spine2
      {
        OFFSET 0.0469873 10.1154 0.0385868
        CHANNELS 3 Zrotation Xrotation Yrotation
        JOINT Spine3
        {
          OFFSET 0.0321772 9.72311 0.0254006
          CHANNELS 3 Zrotation Xrotation Yrotation
          JOINT Neck
          {
            OFFSET 0.0425577 10.3879 -0.03362
            CHANNELS 3 Zrotation Xrotation Yrotation
            JOINT Head
            {
              OFFSET -0.0433974 9.45898 -0.0337556
              CHANNELS 3 Zrotation Xrotation Yrotation
              End Site
              {
                OFFSET 0 15.95 0
              }
            }
          }
          JOINT RightShoulder
          {
            OFFSET -3.17867 6.91972 0.0328625
            CHANNELS 3 Zrotation Xrotation Yrotation
            JOINT RightArm
            {
              OFFSET -12.7831 -0.0478894 -0.00678061
              CHANNELS 3 Zrotation Xrotation Yrotation
              JOINT RightForeArm
              {
                OFFSET -26.5789 -0.0730316 0.00211615
                CHANNELS 3 Zrotation Xrotation Yrotation
                JOINT RightHand
                {
                  OFFSET -26.0213 -0.0103758 0.0349874
                  CHANNELS 3 Zrotation Xrotation Yrotation
                  JOINT RightHandThumb1
                  {
                    OFFSET -2.48905 0.190105 3.12053
                    CHANNELS 3 Zrotation Xrotation Yrotation
                    JOINT RightHandThumb2
                    {
                      OFFSET -3.68274 0 0
                      CHANNELS 3 Zrotation Xrotation Yrotation
                      JOINT RightHandThumb3
                      {
                        OFFSET -2.55832 0 0
                        CHANNELS 3 Zrotation Xrotation Yrotation
                        End Site
                        {
                          OFFSET -2.194 0 0
                        }
                      }
                    }
                  }
                  JOINT RightInHandIndex
                  {
                    OFFSET -3.22368 0.508421 1.97842
                    CHANNELS 3 Zrotation Xrotation Yrotation
                    JOINT RightHandIndex1
                    {
                      OFFSET -5.21684 -0.091368 0.999158
                      CHANNELS 3 Zrotation Xrotation Yrotation
                      JOINT RightHandIndex2
                      {
                        OFFSET -3.61937 0 0
                        CHANNELS 3 Zrotation Xrotation Yrotation
                        JOINT RightHandIndex3
                        {
                          OFFSET -2.0521 0 0
                          CHANNELS 3 Zrotation Xrotation Yrotation
                          End Site
                          {
                            OFFSET -1.805 0 0
                          }
                        }
                      }
                    }
                  }
                  JOINT RightInHandMiddle
                  {
                    OFFSET -3.38211 0.517263 0.756737
                    CHANNELS 3 Zrotation Xrotation Yrotation
                    JOINT RightHandMiddle1
                    {
                      OFFSET -5.17411 -0.084 0.313895
                      CHANNELS 3 Zrotation Xrotation Yrotation
                      JOINT RightHandMiddle2
                      {
                        OFFSET -3.94947 0 0
                        CHANNELS 3 Zrotation Xrotation Yrotation
                        JOINT RightHandMiddle3
                        {
                          OFFSET -2.47579 0 0
                          CHANNELS 3 Zrotation Xrotation Yrotation
                          End Site
                          {
                            OFFSET -1.975 0 0
                          }
                        }
                      }
                    }
                  }
                  JOINT RightInHandRing
                  {
                    OFFSET -3.36516 0.537895 -0.128947
                    CHANNELS 3 Zrotation Xrotation Yrotation
                    JOINT RightHandRing1
                    {
                      OFFSET -4.63474 -0.022105 -0.478947
                      CHANNELS 3 Zrotation Xrotation Yrotation
                      JOINT RightHandRing2
                      {
                        OFFSET -3.44238 0 0
                        CHANNELS 3 Zrotation Xrotation Yrotation
                        JOINT RightHandRing3
                        {
                          OFFSET -2.3881 0 0
                          CHANNELS 3 Zrotation Xrotation Yrotation
                          End Site
                          {
                            OFFSET -1.857 0 0
                          }
                        }
                      }
                    }
                  }
                  JOINT RightInHandPinky
                  {
                    OFFSET -3.16105 0.469368 -1.20179
                    CHANNELS 3 Zrotation Xrotation Yrotation
                    JOINT RightHandPinky1
                    {
                      OFFSET -4.14105 -0.022105 -1.09053
                      CHANNELS 3 Zrotation Xrotation Yrotation
                      JOINT RightHandPinky2
                      {
                        OFFSET -2.75653 0 0
                        CHANNELS 3 Zrotation Xrotation Yrotation
                        JOINT RightHandPinky3
                        {
                          OFFSET -1.74189 0 0
                          CHANNELS 3 Zrotation Xrotation Yrotation
                          End Site
                          {
                            OFFSET -1.645 0 0
                          }
                        }
                      }
                    }
                  }
                }
              }
            }
          }
          JOINT LeftShoulder
          {
            OFFSET 3.23012 6.92 -0.00609139
            CHANNELS 3 Zrotation Xrotation Yrotation
            JOINT LeftArm
            {
              OFFSET 12.7767 -0.0153216 0.0248839
              CHANNELS 3 Zrotation Xrotation Yrotation
              JOINT LeftForeArm
              {
                OFFSET 26.5279 -0.0486976 0.0448853
                CHANNELS 3 Zrotation Xrotation Yrotation
                JOINT LeftHand
                {
                  OFFSET 26.0161 0.0261831 -0.0433709
                  CHANNELS 3 Zrotation Xrotation Yrotation
                  JOINT LeftHandThumb1
                  {
                    OFFSET 2.48905 0.190105 3.12053
                    CHANNELS 3 Zrotation Xrotation Yrotation
                    JOINT LeftHandThumb2
                    {
                      OFFSET 3.68274 0 0
                      CHANNELS 3 Zrotation Xrotation Yrotation
                      JOINT LeftHandThumb3
                      {
                        OFFSET 2.55832 0 0
                        CHANNELS 3 Zrotation Xrotation Yrotation
                        End Site
                        {
                          OFFSET 2.194 0 0
                        }
                      }
                    }
                  }
                  JOINT LeftInHandIndex
                  {
                    OFFSET 3.22368 0.508421 1.97842
                    CHANNELS 3 Zrotation Xrotation Yrotation
                    JOINT LeftHandIndex1
                    {
                      OFFSET 5.21684 -0.091368 0.999158
                      CHANNELS 3 Zrotation Xrotation Yrotation
                      JOINT LeftHandIndex2
                      {
                        OFFSET 3.61937 0 0
                        CHANNELS 3 Zrotation Xrotation Yrotation
                        JOINT LeftHandIndex3
                        {
                          OFFSET 2.0521 0 0
                          CHANNELS 3 Zrotation Xrotation Yrotation
                          End Site
                          {
                            OFFSET 1.805 0 0
                          }
                        }
                      }
                    }
                  }
                  JOINT LeftInHandMiddle
                  {
                    OFFSET 3.38211 0.517263 0.756737
                    CHANNELS 3 Zrotation Xrotation Yrotation
                    JOINT LeftHandMiddle1
                    {
                      OFFSET 5.17411 -0.084 0.313895
                      CHANNELS 3 Zrotation Xrotation Yrotation
                      JOINT LeftHandMiddle2
                      {
                        OFFSET 3.94947 0 0
                        CHANNELS 3 Zrotation Xrotation Yrotation
                        JOINT LeftHandMiddle3
                        {
                          OFFSET 2.47579 0 0
                          CHANNELS 3 Zrotation Xrotation Yrotation
                          End Site
                          {
                            OFFSET 1.975 0 0
                          }
                        }
                      }
                    }
                  }
                  JOINT LeftInHandRing
                  {
                    OFFSET 3.36516 0.537895 -0.128947
                    CHANNELS 3 Zrotation Xrotation Yrotation
                    JOINT LeftHandRing1
                    {
                      OFFSET 4.63474 -0.022105 -0.478947
                      CHANNELS 3 Zrotation Xrotation Yrotation
                      JOINT LeftHandRing2
                      {
                        OFFSET 3.44238 0 0
                        CHANNELS 3 Zrotation Xrotation Yrotation
                        JOINT LeftHandRing3
                        {
                          OFFSET 2.3881 0 0
                          CHANNELS 3 Zrotation Xrotation Yrotation
                          End Site
                          {
                            OFFSET 1.857 0 0
                          }
                        }
                      }
                    }
                  }
                  JOINT LeftInHandPinky
                  {
                    OFFSET 3.16105 0.469368 -1.20179
                    CHANNELS 3 Zrotation Xrotation Yrotation
                    JOINT LeftHandPinky1
                    {
                      OFFSET 4.14105 -0.022105 -1.09053
                      CHANNELS 3 Zrotation Xrotation Yrotation
                      JOINT LeftHandPinky2
                      {
                        OFFSET 2.75653 0 0
                        CHANNELS 3 Zrotation Xrotation Yrotation
                        JOINT LeftHandPinky3
                        {
                          OFFSET 1.74189 0 0
                          CHANNELS 3 Zrotation Xrotation Yrotation
                          End Site
                          {
                            OFFSET 1.645 0 0
                          }
                        }
                      }
                    }
                  }
                }
              }
            }
          }
        }
      }
    }
  }
}
MOTION
Frames:	6
Frame Time:	0.00833333
365.988 85.5604 261.14 23.013 -2.21781 -113.747 33.4739 -46.1257 50.4064 -2.7954 27.2517 -19.048 13.3126 5.8143 46.7589 30.1557 -27.0017 13.1008 -21.1074 47.5399 25.6237 -0.29815 -19.3617 43.1567 -7.03627 4.42397 -22.3056 -1.92388 0.310545 -5.80083 -3.14075 0.135968 -9.15075 -0.556734 -0.554782 2.74481 0.359805 -7.80158 44.0225 -8.56341 3.84005 25.6843 5.40028 -0.730609 -20.6161 59.2054 -55.7007 31.8973 29.6831 -10.7529 135.838 3.67906 -10.4988 2.41962 28.184 10.7294 19.1592 -1.61481e-15 0 -10 -4.19414e-15 -3.18055e-15 -10 6.36111e-15 -3.18055e-15 -0 19.9818 0.871897 2.3964 24 -6.36111e-15 -4.81432e-15 20 -1.27222e-14 -1.59028e-15 6.36111e-15 -3.18055e-15 -0 20 3.18055e-15 -3.18055e-15 24 3.18055e-15 -5.96354e-16 20 -1.59028e-14 1.59028e-15 6.36111e-15 -3.18055e-15 -0 19.9748 -1.02565 -2.81938 24 0 1.98785e-15 20 -3.18055e-15 -0 6.36111e-15 -3.18055e-15 -0 19.7815 -3.00948 -8.30515 24 3.18055e-15 3.18055e-15 20 0 -1.59028e-15 12.3295 -15.3992 -42.1685 -0.991526 8.76446 -114.32 18.0131 -29.7093 -56.2275 -7.83954 16.2912 -16.0689 -28.184 10.7294 -19.1592 -4.28361e-15 -3.18055e-15 10 1.8614e-15 3.18055e-15 10 3.18055e-15 -6.36111e-15 -0 -19.9818 0.871897 -2.3964 -24 3.18055e-15 3.18055e-15 -20 6.36111e-15 3.18055e-15 3.18055e-15 -6.36111e-15 -0 -20 3.18055e-15 1.59028e-15 -24 0 -7.95139e-16 -20 0 -1.59028e-15 3.18055e-15 -6.36111e-15 -0 -19.9748 -1.02565 2.81938 -24 -1.27222e-14 7.95139e-16 -20 0 3.18055e-15 3.18055e-15 -6.36111e-15 -0 -19.7815 -3.00948 8.30515 -24 -3.18055e-15 2.38542e-15 -20 0 -0 
366.068 85.5495 261.212 23 -2.24145 -113.93 33.621 -46.1063 50.5721 -2.81634 27.3054 -18.9477 13.3521 5.82738 46.7433 30.2059 -27.0888 13.1678 -21.051 47.9347 25.373 -0.458352 -19.3224 43.372 -7.15389 4.38493 -22.3855 -1.95293 0.289222 -5.82124 -3.18787 0.0970699 -9.17697 -0.546059 -0.545232 2.74969 0.374881 -7.67175 44.0626 -8.40184 3.79371 25.7515 5.51377 -0.699637 -20.7508 59.2508 -56.1838 31.723 28.9425 -11.0403 136.269 3.6976 -10.3082 2.68391 28.184 10.7294 19.1592 -1.02497e-14 -3.18055e-15 -10 6.86294e-15 0 -10 -2.38542e-15 -3.18055e-15 -3.18055e-15 19.9818 0.871897 2.3964 24 0 -8.54774e-15 20 6.36111e-15 -3.18055e-15 -2.38542e-15 -3.18055e-15 -3.18055e-15 20 0 -4.77083e-15 24 3.18055e-15 -7.95139e-15 20 0 -1.59028e-15 -2.38542e-15 -3.18055e-15 -3.18055e-15 19.9748 -1.02565 -2.81938 24 0 -6.36111e-15 20 -6.36111e-15 -1.59028e-15 -2.38542e-15 -3.18055e-15 -3.18055e-15 19.7815 -3.00948 -8.30515 24 9.54166e-15 1.59028e-15 20 6.36111e-15 -1.59028e-15 12.4295 -15.2409 -42.0706 -0.831851 8.63164 -114.401 18.1391 -29.7056 -56.8095 -7.85476 16.3419 -16.5524 -28.184 10.7294 -19.1592 3.72279e-15 6.36111e-15 10 2.46587e-16 3.18055e-15 10 5.56597e-15 3.18055e-15 -6.36111e-15 -19.9818 0.871897 -2.3964 -24 -3.18055e-15 -1.59028e-15 -20 -9.54166e-15 7.95139e-16 5.56597e-15 3.18055e-15 -6.36111e-15 -20 0 4.77083e-15 -24 -3.18055e-15 -1.59028e-15 -20 -3.18055e-15 -3.18055e-15 5.56597e-15 3.18055e-15 -6.36111e-15 -19.9748 -1.02565 2.81938 -24 0 -1.98785e-15 -20 9.54166e-15 1.59028e-15 5.56597e-15 3.18055e-15 -6.36111e-15 -19.7815 -3.00948 8.30515 -24 -3.18055e-15 7.95139e-16 -20 -9.54166e-15 -1.59028e-15 
366.139 85.5409 261.295 22.9553 -2.21899 -114.076 33.7275 -46.0738 50.6404 -2.8473 27.3649 -18.8477 13.4021 5.84461 46.7507 30.2431 -27.1736 13.1597 -21.0641 48.2401 25.3348 -0.599252 -19.2014 43.4321 -7.20932 4.38614 -22.5014 -1.96793 0.280138 -5.852 -3.21176 0.079408 -9.21919 -0.537635 -0.537415 2.75496 0.394531 -7.56789 44.1408 -8.27856 3.78348 25.8337 5.58631 -0.682454 -20.8027 59.3386 -56.6349 31.6716 28.1909 -11.3767 136.579 3.71392 -10.1151 2.96106 28.184 10.7294 19.1592 -2.10798e-15 6.36111e-15 -10 -1.77193e-15 -3.18055e-15 -10 -1.59028e-15 0 6.36111e-15 19.9818 0.871897 2.3964 24 -3.18055e-15 6.36111e-15 20 -1.27222e-14 -4.77083e-15 -1.59028e-15 0 6.36111e-15 20 0 -0 24 3.18055e-15 1.98785e-15 20 -6.36111e-15 1.59028e-15 -1.59028e-15 0 6.36111e-15 19.9748 -1.02565 -2.81938 24 -3.18055e-15 1.59028e-15 20 -6.36111e-15 1.59028e-15 -1.59028e-15 0 6.36111e-15 19.7815 -3.00948 -8.30515 24 -6.36111e-15 1.59028e-15 20 0 -0 12.5032 -15.0891 -41.8724 -0.635726 8.38304 -114.629 18.2899 -29.7483 -57.1632 -7.85678 16.4318 -17.0281 -28.184 10.7294 -19.1592 -2.6688e-15 -3.18055e-15 10 1.36822e-15 -3.18055e-15 10 6.36111e-15 -3.18055e-15 -3.18055e-15 -19.9818 0.871897 -2.3964 -24 -6.36111e-15 5.56597e-15 -20 -6.36111e-15 -4.77083e-15 6.36111e-15 -3.18055e-15 -3.18055e-15 -20 6.36111e-15 -4.77083e-15 -24 -9.54166e-15 7.95139e-16 -20 3.18055e-15 -3.18055e-15 6.36111e-15 -3.18055e-15 -3.18055e-15 -19.9748 -1.02565 2.81938 -24 -6.36111e-15 1.98785e-15 -20 -6.36111e-15 1.59028e-15 6.36111e-15 -3.18055e-15 -3.18055e-15 -19.7815 -3.00948 8.30515 -24 0 -1.98785e-15 -20 -3.18055e-15 -1.59028e-15 
366.206 85.5342 261.379 22.9028 -2.16947 -114.206 33.8211 -46.0368 50.6556 -2.89497 27.4237 -18.7396 13.4504 5.86317 46.7664 30.2754 -27.2524 13.144 -21.1498 48.3997 25.5341 -0.685147 -18.9869 43.2875 -7.24994 4.40588 -22.5884 -1.97929 0.280278 -5.87581 -3.23021 0.0721974 -9.25201 -0.53005 -0.529613 2.7595 0.407306 -7.46453 44.197 -8.16789 3.78133 25.9052 5.63636 -0.644478 -20.8489 59.5359 -57.0698 31.692 27.4321 -11.695 136.819 3.76977 -9.91916 3.28857 28.184 10.7294 19.1592 5.96607e-15 6.36111e-15 -10 3.54385e-15 6.36111e-15 -10 1.76556e-31 -3.18055e-15 3.18055e-15 19.9818 0.871897 2.3964 24 -6.36111e-15 -3.57812e-15 20 6.36111e-15 1.59028e-15 1.76556e-31 -3.18055e-15 3.18055e-15 20 3.18055e-15 4.77083e-15 24 0 3.18055e-15 20 -6.36111e-15 3.18055e-15 1.76556e-31 -3.18055e-15 3.18055e-15 19.9748 -1.02565 -2.81938 24 -1.27222e-14 1.59028e-15 20 -6.36111e-15 -6.36111e-15 1.76556e-31 -3.18055e-15 3.18055e-15 19.7815 -3.00948 -8.30515 24 6.36111e-15 1.59028e-15 20 -3.18055e-15 -0 12.5716 -14.9354 -41.7486 -0.340537 7.72012 -115.469 18.5407 -29.8653 -56.6223 -7.8357 16.5175 -17.5057 -28.184 10.7294 -19.1592 5.96607e-15 -6.36111e-15 10 -2.10798e-15 -6.36111e-15 10 9.54166e-15 -6.36111e-15 9.54166e-15 -19.9818 0.871897 -2.3964 -24 -6.36111e-15 6.36111e-15 -20 3.18055e-15 4.77083e-15 9.54166e-15 -6.36111e-15 9.54166e-15 -20 -9.54166e-15 9.54166e-15 -24 -9.54166e-15 1.11319e-14 -20 -3.18055e-15 -7.95139e-16 9.54166e-15 -6.36111e-15 9.54166e-15 -19.9748 -1.02565 2.81938 -24 -6.36111e-15 4.37326e-15 -20 -6.36111e-15 1.59028e-15 9.54166e-15 -6.36111e-15 9.54166e-15 -19.7815 -3.00948 8.30515 -24 -6.36111e-15 1.59028e-15 -20 0 1.59028e-15 
366.279 85.5258 261.456 22.8422 -2.10695 -114.322 33.9118 -45.9956 50.6488 -2.96025 27.4811 -18.6329 13.4995 5.88285 46.7906 30.3116 -27.335 13.152 -21.2126 48.5614 25.7191 -0.778053 -18.7515 43.1044 -7.30148 4.43535 -22.6522 -1.99368 0.281164 -5.89414 -3.25341 0.0675527 -9.27694 -0.52213 -0.521394 2.76371 0.415012 -7.35343 44.2368 -8.05072 3.76728 25.9701 5.66672 -0.599158 -20.9405 59.8519 -57.4168 31.7304 26.6572 -11.9662 137.003 3.97529 -9.6851 3.6624 28.184 10.7294 19.1592 -1.05399e-15 3.18055e-15 -10 3.94755e-15 6.36111e-15 -10 -3.18055e-15 -6.36111e-15 -0 19.9818 0.871897 2.3964 24 -6.36111e-15 9.93923e-15 20 -6.36111e-15 3.18055e-15 -3.18055e-15 -6.36111e-15 -0 20 3.18055e-15 1.59028e-15 24 -6.36111e-15 2.38542e-15 20 3.18055e-15 3.18055e-15 -3.18055e-15 -6.36111e-15 -0 19.9748 -1.02565 -2.81938 24 -3.18055e-15 -2.38542e-15 20 0 4.77083e-15 -3.18055e-15 -6.36111e-15 -0 19.7815 -3.00948 -8.30515 24 6.36111e-15 3.18055e-15 20 -3.18055e-15 -0 12.6376 -14.7751 -41.7344 -0.192131 7.43354 -115.739 18.745 -29.8569 -56.6256 -7.82468 16.6043 -17.9379 -28.184 10.7294 -19.1592 3.22962e-15 0 10 1.68245e-15 -9.54166e-15 10 4.77083e-15 3.18055e-15 3.18055e-15 -19.9818 0.871897 -2.3964 -24 -6.36111e-15 9.54166e-15 -20 0 -0 4.77083e-15 3.18055e-15 3.18055e-15 -20 -6.36111e-15 9.54166e-15 -24 -3.18055e-15 7.15625e-15 -20 3.18055e-15 -7.95139e-16 4.77083e-15 3.18055e-15 3.18055e-15 -19.9748 -1.02565 2.81938 -24 0 5.56597e-15 -20 -3.18055e-15 4.77083e-15 4.77083e-15 3.18055e-15 3.18055e-15 -19.7815 -3.00948 8.30515 -24 -3.18055e-15 4.69629e-15 -20 0 -3.18055e-15 
366.359 85.5144 261.527 22.7916 -2.00893 -114.419 34.0195 -45.9618 50.5927 -3.0376 27.5466 -18.4992 13.5051 5.88605 46.8313 30.3786 -27.4318 13.1793 -21.2023 48.8334 25.7141 -0.811943 -18.7824 43.1875 -7.34487 4.48472 -22.6878 -2.00704 0.282331 -5.90586 -3.274 0.0725481 -9.29293 -0.513578 -0.513113 2.76727 0.41848 -7.23831 44.2534 -7.92123 3.7259 26.0224 5.70927 -0.590951 -21.0558 60.1424 -57.6626 31.6755 25.898 -12.2133 137.209 4.22518 -9.43263 4.07662 28.184 10.7294 19.1592 -5.96607e-15 -6.36111e-15 -10 3.87991e-15 -3.18055e-15 -10 4.77083e-15 3.18055e-15 -6.36111e-15 19.9818 0.871897 2.3964 24 3.18055e-15 -5.96354e-15 20 -6.36111e-15 -0 4.77083e-15 3.18055e-15 -6.36111e-15 20 -3.18055e-15 -2.38542e-15 24 3.18055e-15 1.59028e-15 20 6.36111e-15 1.59028e-15 4.77083e-15 3.18055e-15 -6.36111e-15 19.9748 -1.02565 -2.81938 24 0 -3.18055e-15 20 3.18055e-15 3.18055e-15 4.77083e-15 3.18055e-15 -6.36111e-15 19.7815 -3.00948 -8.30515 24 3.18055e-15 3.18055e-15 20 0 -3.18055e-15 12.7703 -14.6813 -41.6096 -0.145112 7.31167 -115.965 18.9262 -29.7787 -56.8058 -7.87549 16.6774 -18.3175 -28.184 10.7294 -19.1592 -3.29726e-15 9.54166e-15 10 4.84443e-15 0 10 -1.59028e-15 -6.36111e-15 9.54166e-15 -19.9818 0.871897 -2.3964 -24 9.54166e-15 -2.38542e-15 -20 6.36111e-15 -5.96354e-15 -1.59028e-15 -6.36111e-15 9.54166e-15 -20 0 -3.18055e-15 -24 -9.54166e-15 -6.36111e-15 -20 -6.36111e-15 -1.59028e-15 -1.59028e-15 -6.36111e-15 9.54166e-15 -19.9748 -1.02565 2.81938 -24 3.18055e-15 -5.56597e-15 -20 -3.18055e-15 -2.38542e-15 -1.59028e-15 -6.36111e-15 9.54166e-15 -19.7815 -3.00948 8.30515 -24 3.18055e-15 -6.95746e-16 -20 3.18055e-15 -1.59028e-15 
